<?xml version="1.0" encoding="UTF-8" standalone="no"?>
<!-- Created with Inkscape (http://www.inkscape.org/) -->

<svg xmlns:dc="http://purl.org/dc/elements/1.1/" xmlns:cc="http://creativecommons.org/ns#" xmlns:rdf="http://www.w3.org/1999/02/22-rdf-syntax-ns#" xmlns:svg="http://www.w3.org/2000/svg" xmlns="http://www.w3.org/2000/svg" xmlns:xlink="http://www.w3.org/1999/xlink" xmlns:sodipodi="http://sodipodi.sourceforge.net/DTD/sodipodi-0.dtd" xmlns:inkscape="http://www.inkscape.org/namespaces/inkscape" width="3000" height="2000" viewBox="0 0 3000 2000" id="svg5648" version="1.1" inkscape:version="0.91 r13725" sodipodi:docname="offendflag.svg" inkscape:export-filename="offendflag.png" inkscape:export-xdpi="218.283" inkscape:export-ydpi="218.283">
  <defs id="defs5650">
    <pattern inkscape:collect="always" xlink:href="#pattern6335" id="pattern7064" patternTransform="matrix(-0.4477601,0,0,-0.30558122,393.39601,577.88832)" />
    <pattern patternUnits="userSpaceOnUse" width="2999.4834" height="2000.0001" patternTransform="translate(0.25845009,-947.63782)" id="pattern6335">
      <g id="g6327" transform="translate(-0.25845009,947.63782)">
        <rect y="-947.63782" x="0.25845009" height="2000" width="2999.4834" id="rect6206" style="opacity:1;fill:#ff0000;fill-opacity:1;fill-rule:nonzero;stroke:none;stroke-width:0.51690018;stroke-linecap:round;stroke-linejoin:miter;stroke-miterlimit:4;stroke-dasharray:none;stroke-opacity:1" />
        <rect style="opacity:1;fill:#ff6600;fill-opacity:1;fill-rule:nonzero;stroke:none;stroke-width:0.51690018;stroke-linecap:round;stroke-linejoin:miter;stroke-miterlimit:4;stroke-dasharray:none;stroke-opacity:1" id="rect6204" width="2999.4834" height="1666.6666" x="0.25845009" y="-614.3045" />
        <rect y="-280.97122" x="0.25845009" height="1333.3333" width="2999.4834" id="rect6202" style="opacity:1;fill:#ffff00;fill-opacity:1;fill-rule:nonzero;stroke:none;stroke-width:0.51690018;stroke-linecap:round;stroke-linejoin:miter;stroke-miterlimit:4;stroke-dasharray:none;stroke-opacity:1" />
        <rect style="opacity:1;fill:#008000;fill-opacity:1;fill-rule:nonzero;stroke:none;stroke-width:0.51690018;stroke-linecap:round;stroke-linejoin:miter;stroke-miterlimit:4;stroke-dasharray:none;stroke-opacity:1" id="rect6200" width="2999.4834" height="999.99902" x="0.25845009" y="52.363205" />
        <rect y="385.69559" x="0.25845009" height="666.66663" width="2999.4834" id="rect6198" style="opacity:1;fill:#0012ff;fill-opacity:1;fill-rule:nonzero;stroke:none;stroke-width:0.51690018;stroke-linecap:round;stroke-linejoin:miter;stroke-miterlimit:4;stroke-dasharray:none;stroke-opacity:1" />
        <rect style="opacity:1;fill:#800080;fill-opacity:1;fill-rule:nonzero;stroke:none;stroke-width:0.51690018;stroke-linecap:round;stroke-linejoin:miter;stroke-miterlimit:4;stroke-dasharray:none;stroke-opacity:1" id="rect6196" width="2999.4834" height="333.33334" x="0.25845009" y="719.02893" />
      </g>
    </pattern>
  </defs>
  <sodipodi:namedview id="base" pagecolor="#ffffff" bordercolor="#666666" borderopacity="1.0" inkscape:pageopacity="0.0" inkscape:pageshadow="2" inkscape:zoom="0.32" inkscape:cx="1514.2781" inkscape:cy="969.64591" inkscape:document-units="px" inkscape:current-layer="g6323" showgrid="false" units="px" inkscape:snap-intersection-paths="true" inkscape:object-nodes="true" inkscape:snap-midpoints="true" inkscape:snap-object-midpoints="true" inkscape:snap-global="false" inkscape:snap-nodes="true" inkscape:window-width="1920" inkscape:window-height="976" inkscape:window-x="-8" inkscape:window-y="-8" inkscape:window-maximized="1" inkscape:snap-others="true">
    <sodipodi:guide position="0,0" orientation="0,3000" id="guide6208" />
    <sodipodi:guide position="3000,0" orientation="-2000,0" id="guide6210" />
    <sodipodi:guide position="3000,2000" orientation="0,-3000" id="guide6212" />
    <sodipodi:guide position="0,2000" orientation="2000,0" id="guide6214" />
  </sodipodi:namedview>
  <metadata id="metadata5653">
    <rdf:RDF>
      <cc:Work rdf:about="">
        <dc:format>image/svg+xml</dc:format>
        <dc:type rdf:resource="http://purl.org/dc/dcmitype/StillImage" />
        <dc:title></dc:title>
      </cc:Work>
    </rdf:RDF>
  </metadata>
  <g inkscape:label="Capa 1" inkscape:groupmode="layer" id="layer1" transform="translate(0,947.63784)">
    <rect style="stroke:none;fill:url(#pattern6335)" width="2999.4834" height="2000.0001" x="0.25845009" y="-947.63782" id="rect6344" />
    <rect style="opacity:1;fill:#000080;fill-opacity:1;fill-rule:nonzero;stroke:#ffffff;stroke-width:49.51868439;stroke-linecap:round;stroke-linejoin:miter;stroke-miterlimit:4;stroke-dasharray:none;stroke-opacity:1" id="rect6229" width="616.8327" height="3652.0334" x="626.19366" y="-651.60345" transform="matrix(0.64961271,-0.7602653,0.7602653,0.64961271,0,0)" />
    <rect transform="matrix(-0.64961271,-0.7602653,-0.7602653,0.64961271,0,0)" y="-2932.3997" x="-1322.6447" height="3652.0334" width="616.8327" id="rect6231" style="opacity:1;fill:#000080;fill-opacity:1;fill-rule:nonzero;stroke:#ffffff;stroke-width:49.51868439;stroke-linecap:round;stroke-linejoin:miter;stroke-miterlimit:4;stroke-dasharray:none;stroke-opacity:1" />
    <circle style="opacity:1;fill:#000080;fill-opacity:1;fill-rule:nonzero;stroke:#ffffff;stroke-width:50;stroke-linecap:round;stroke-linejoin:miter;stroke-miterlimit:4;stroke-dasharray:none;stroke-opacity:1" id="path6222" cx="1500" cy="52.362179" r="749.69928" />
    <g id="g6250" transform="matrix(0.1201348,0,0,0.1201348,1633.3883,-478.4004)" style="stroke-width:166.47966003;stroke-miterlimit:4;stroke-dasharray:none">
      <path inkscape:connector-curvature="0" id="path6241" d="m -1921.2353,-870.57532 1636.29752,8e-5 -818.14882,1417.0751 z" style="fill:none;fill-rule:evenodd;stroke:#ffffff;stroke-width:166.47966003;stroke-linecap:butt;stroke-linejoin:miter;stroke-miterlimit:4;stroke-dasharray:none;stroke-opacity:1" />
      <path inkscape:connector-curvature="0" id="path6243" d="m -1103.0865,-1342.9337 -818.1488,1417.07516 1636.29747,1e-4 z" style="fill:none;fill-rule:evenodd;stroke:#ffffff;stroke-width:166.47966003;stroke-linecap:butt;stroke-linejoin:miter;stroke-miterlimit:4;stroke-dasharray:none;stroke-opacity:1" />
    </g>
    <g style="stroke-width:166.47966003;stroke-miterlimit:4;stroke-dasharray:none" transform="matrix(0.1201348,0,0,0.1201348,1287.9161,-379.40545)" id="g6260">
      <path style="fill:none;fill-rule:evenodd;stroke:#ffffff;stroke-width:166.47966003;stroke-linecap:butt;stroke-linejoin:miter;stroke-miterlimit:4;stroke-dasharray:none;stroke-opacity:1" d="m -1921.2353,-870.57532 1636.29752,8e-5 -818.14882,1417.0751 z" id="path6262" inkscape:connector-curvature="0" />
      <path style="fill:none;fill-rule:evenodd;stroke:#ffffff;stroke-width:166.47966003;stroke-linecap:butt;stroke-linejoin:miter;stroke-miterlimit:4;stroke-dasharray:none;stroke-opacity:1" d="m -1103.0865,-1342.9337 -818.1488,1417.07516 1636.29747,1e-4 z" id="path6264" inkscape:connector-curvature="0" />
    </g>
    <g id="g6266" transform="matrix(0.1201348,0,0,0.1201348,1071.7435,-88.481514)" style="stroke-width:166.47966003;stroke-miterlimit:4;stroke-dasharray:none">
      <path inkscape:connector-curvature="0" id="path6268" d="m -1921.2353,-870.57532 1636.29752,8e-5 -818.14882,1417.0751 z" style="fill:none;fill-rule:evenodd;stroke:#ffffff;stroke-width:166.47966003;stroke-linecap:butt;stroke-linejoin:miter;stroke-miterlimit:4;stroke-dasharray:none;stroke-opacity:1" />
      <path inkscape:connector-curvature="0" id="path6270" d="m -1103.0865,-1342.9337 -818.1488,1417.07516 1636.29747,1e-4 z" style="fill:none;fill-rule:evenodd;stroke:#ffffff;stroke-width:166.47966003;stroke-linecap:butt;stroke-linejoin:miter;stroke-miterlimit:4;stroke-dasharray:none;stroke-opacity:1" />
    </g>
    <g style="stroke-width:166.47966003;stroke-miterlimit:4;stroke-dasharray:none" transform="matrix(0.1201348,0,0,0.1201348,1073.7638,281.23432)" id="g6272">
      <path style="fill:none;fill-rule:evenodd;stroke:#ffffff;stroke-width:166.47966003;stroke-linecap:butt;stroke-linejoin:miter;stroke-miterlimit:4;stroke-dasharray:none;stroke-opacity:1" d="m -1921.2353,-870.57532 1636.29752,8e-5 -818.14882,1417.0751 z" id="path6274" inkscape:connector-curvature="0" />
      <path style="fill:none;fill-rule:evenodd;stroke:#ffffff;stroke-width:166.47966003;stroke-linecap:butt;stroke-linejoin:miter;stroke-miterlimit:4;stroke-dasharray:none;stroke-opacity:1" d="m -1103.0865,-1342.9337 -818.1488,1417.07516 1636.29747,1e-4 z" id="path6276" inkscape:connector-curvature="0" />
    </g>
    <g id="g6278" transform="matrix(0.1201348,0,0,0.1201348,1285.8958,576.19886)" style="stroke-width:166.47966003;stroke-miterlimit:4;stroke-dasharray:none">
      <path inkscape:connector-curvature="0" id="path6280" d="m -1921.2353,-870.57532 1636.29752,8e-5 -818.14882,1417.0751 z" style="fill:none;fill-rule:evenodd;stroke:#ffffff;stroke-width:166.47966003;stroke-linecap:butt;stroke-linejoin:miter;stroke-miterlimit:4;stroke-dasharray:none;stroke-opacity:1" />
      <path inkscape:connector-curvature="0" id="path6282" d="m -1103.0865,-1342.9337 -818.1488,1417.07516 1636.29747,1e-4 z" style="fill:none;fill-rule:evenodd;stroke:#ffffff;stroke-width:166.47966003;stroke-linecap:butt;stroke-linejoin:miter;stroke-miterlimit:4;stroke-dasharray:none;stroke-opacity:1" />
    </g>
    <g style="stroke-width:166.47966003;stroke-miterlimit:4;stroke-dasharray:none" transform="matrix(0.1201348,0,0,0.1201348,1630.499,682.06306)" id="g6284">
      <path style="fill:none;fill-rule:evenodd;stroke:#ffffff;stroke-width:166.47966003;stroke-linecap:butt;stroke-linejoin:miter;stroke-miterlimit:4;stroke-dasharray:none;stroke-opacity:1" d="m -1921.2353,-870.57532 1636.29752,8e-5 -818.14882,1417.0751 z" id="path6286" inkscape:connector-curvature="0" />
      <path style="fill:none;fill-rule:evenodd;stroke:#ffffff;stroke-width:166.47966003;stroke-linecap:butt;stroke-linejoin:miter;stroke-miterlimit:4;stroke-dasharray:none;stroke-opacity:1" d="m -1103.0865,-1342.9337 -818.1488,1417.07516 1636.29747,1e-4 z" id="path6288" inkscape:connector-curvature="0" />
    </g>
    <g id="g6290" transform="matrix(0.1201348,0,0,0.1201348,1982.0321,577.0072)" style="stroke-width:166.47966003;stroke-miterlimit:4;stroke-dasharray:none">
      <path inkscape:connector-curvature="0" id="path6292" d="m -1921.2353,-870.57532 1636.29752,8e-5 -818.14882,1417.0751 z" style="fill:none;fill-rule:evenodd;stroke:#ffffff;stroke-width:166.47966003;stroke-linecap:butt;stroke-linejoin:miter;stroke-miterlimit:4;stroke-dasharray:none;stroke-opacity:1" />
      <path inkscape:connector-curvature="0" id="path6294" d="m -1103.0865,-1342.9337 -818.1488,1417.07516 1636.29747,1e-4 z" style="fill:none;fill-rule:evenodd;stroke:#ffffff;stroke-width:166.47966003;stroke-linecap:butt;stroke-linejoin:miter;stroke-miterlimit:4;stroke-dasharray:none;stroke-opacity:1" />
    </g>
    <g style="stroke-width:166.47966003;stroke-miterlimit:4;stroke-dasharray:none" transform="matrix(0.1201348,0,0,0.1201348,2192.1438,275.98174)" id="g6296">
      <path style="fill:none;fill-rule:evenodd;stroke:#ffffff;stroke-width:166.47966003;stroke-linecap:butt;stroke-linejoin:miter;stroke-miterlimit:4;stroke-dasharray:none;stroke-opacity:1" d="m -1921.2353,-870.57532 1636.29752,8e-5 -818.14882,1417.0751 z" id="path6298" inkscape:connector-curvature="0" />
      <path style="fill:none;fill-rule:evenodd;stroke:#ffffff;stroke-width:166.47966003;stroke-linecap:butt;stroke-linejoin:miter;stroke-miterlimit:4;stroke-dasharray:none;stroke-opacity:1" d="m -1103.0865,-1342.9337 -818.1488,1417.07516 1636.29747,1e-4 z" id="path6300" inkscape:connector-curvature="0" />
    </g>
    <g id="g6302" transform="matrix(0.1201348,0,0,0.1201348,2188.1032,-85.652871)" style="stroke-width:166.47966003;stroke-miterlimit:4;stroke-dasharray:none">
      <path inkscape:connector-curvature="0" id="path6304" d="m -1921.2353,-870.57532 1636.29752,8e-5 -818.14882,1417.0751 z" style="fill:none;fill-rule:evenodd;stroke:#ffffff;stroke-width:166.47966003;stroke-linecap:butt;stroke-linejoin:miter;stroke-miterlimit:4;stroke-dasharray:none;stroke-opacity:1" />
      <path inkscape:connector-curvature="0" id="path6306" d="m -1103.0865,-1342.9337 -818.1488,1417.07516 1636.29747,1e-4 z" style="fill:none;fill-rule:evenodd;stroke:#ffffff;stroke-width:166.47966003;stroke-linecap:butt;stroke-linejoin:miter;stroke-miterlimit:4;stroke-dasharray:none;stroke-opacity:1" />
    </g>
    <g style="stroke-width:166.47966003;stroke-miterlimit:4;stroke-dasharray:none" transform="matrix(0.1201348,0,0,0.1201348,1977.9915,-376.57681)" id="g6308">
      <path style="fill:none;fill-rule:evenodd;stroke:#ffffff;stroke-width:166.47966003;stroke-linecap:butt;stroke-linejoin:miter;stroke-miterlimit:4;stroke-dasharray:none;stroke-opacity:1" d="m -1921.2353,-870.57532 1636.29752,8e-5 -818.14882,1417.0751 z" id="path6310" inkscape:connector-curvature="0" />
      <path style="fill:none;fill-rule:evenodd;stroke:#ffffff;stroke-width:166.47966003;stroke-linecap:butt;stroke-linejoin:miter;stroke-miterlimit:4;stroke-dasharray:none;stroke-opacity:1" d="m -1103.0865,-1342.9337 -818.1488,1417.07516 1636.29747,1e-4 z" id="path6312" inkscape:connector-curvature="0" />
    </g>
    <circle style="opacity:1;fill:#ffffff;fill-opacity:1;fill-rule:nonzero;stroke:none;stroke-width:20;stroke-linecap:round;stroke-linejoin:miter;stroke-miterlimit:4;stroke-dasharray:none;stroke-opacity:1" id="path6314" cx="1500" cy="52.362179" r="444.46713" />
    <rect style="opacity:1;fill:#000000;fill-opacity:1;fill-rule:nonzero;stroke:none;stroke-width:20;stroke-linecap:round;stroke-linejoin:miter;stroke-miterlimit:4;stroke-dasharray:none;stroke-opacity:1" id="rect6316" width="1000" height="1000" x="-2343.1785" y="-2475.1982" transform="matrix(0.70710678,-0.70710678,0.70710678,0.70710678,0,0)" />
    <g id="g6323" style="stroke:url(#pattern6335);stroke-width:241.07582092;stroke-miterlimit:4;stroke-dasharray:none;stroke-opacity:1" transform="matrix(-0.49776871,0,0,0.49776871,156.02466,98.829937)">
      <path style="color:#000000;font-style:normal;font-variant:normal;font-weight:normal;font-stretch:normal;font-size:medium;line-height:normal;font-family:sans-serif;text-indent:0;text-align:start;text-decoration:none;text-decoration-line:none;text-decoration-style:solid;text-decoration-color:#000000;letter-spacing:normal;word-spacing:normal;text-transform:none;direction:ltr;block-progression:tb;writing-mode:lr-tb;baseline-shift:baseline;text-anchor:start;white-space:normal;clip-rule:nonzero;display:inline;overflow:visible;visibility:visible;opacity:1;isolation:auto;mix-blend-mode:normal;color-interpolation:sRGB;color-interpolation-filters:linearRGB;solid-color:#000000;solid-opacity:1;fill:url(#pattern7064);fill-opacity:1;fill-rule:evenodd;stroke:none;stroke-width:241.07582092;stroke-linecap:butt;stroke-linejoin:miter;stroke-miterlimit:4;stroke-dasharray:none;stroke-dashoffset:0;stroke-opacity:1;color-rendering:auto;image-rendering:auto;shape-rendering:auto;text-rendering:auto;enable-background:accumulate" d="M 1457.5742,605.59766 1239.1602,824.01172 1415.1484,1000 l -91.1347,91.1348 -133.5625,-133.56058 -84.8535,84.85158 218.416,218.414 175.9863,-175.9863 91.1348,91.1348 -133.5606,133.5605 84.8516,84.8535 218.414,-218.414 L 1584.8535,1000 l 91.1348,-91.13477 133.5605,133.56057 84.8535,-84.85158 L 1675.9883,739.16016 1500,915.14844 l -91.1348,-91.13672 133.5606,-133.56055 -84.8516,-84.85351 z" transform="matrix(-2.0089652,0,0,2.0089652,313.44811,-2102.3173)" id="path6318" inkscape:connector-curvature="0" />
      <g transform="matrix(-0.89783108,-0.44034003,-0.44034003,0.89783108,0,0)" style="font-style:normal;font-weight:normal;font-size:5.02241278px;line-height:125%;font-family:sans-serif;letter-spacing:0px;word-spacing:0px;fill:#ffffff;fill-opacity:1;stroke:none;stroke-width:1px;stroke-linecap:butt;stroke-linejoin:miter;stroke-opacity:1" id="text7071">
        <path d="m 1617.523,-1347.3745 12.8749,0 q 135.4923,0 264.2407,89.5107 l -3.6785,0 -146.5279,-33.1067 q -210.2891,0 -338.4244,190.0571 -57.6302,96.8679 -57.6302,210.28907 0,224.39004 209.6759,355.59077 83.3799,43.52922 179.0216,43.52922 l 157.5635,-30.65438 0,3.67853 q -98.094,65.60036 -182.7001,81.54064 -49.6601,6.74396 -82.7668,6.74396 l -17.1665,0 q -225.0031,0 -370.9179,-194.96183 -80.9276,-117.71281 -80.9276,-260.56221 0,-261.17527 239.1042,-407.09007 105.451,-54.5648 218.2591,-54.5648 z m 278.9549,282.6333 1.8392,0 q 3.6785,0 41.69,123.23061 l 128.1353,0 0,1.83926 -102.9987,77.24903 q 39.8507,114.64737 39.8507,125.06986 l -108.5165,-76.02286 -103.6118,76.02286 -1.8393,0 0,-1.83926 40.4638,-123.2306 -105.4511,-77.24903 0,-1.83926 130.5877,0 39.8507,-123.23061 z" style="font-size:1255.60327148px;fill:#ffffff" id="path7076" />
      </g>
      <path style="color:#000000;font-style:normal;font-variant:normal;font-weight:normal;font-stretch:normal;font-size:medium;line-height:normal;font-family:sans-serif;text-indent:0;text-align:start;text-decoration:none;text-decoration-line:none;text-decoration-style:solid;text-decoration-color:#000000;letter-spacing:normal;word-spacing:normal;text-transform:none;direction:ltr;block-progression:tb;writing-mode:lr-tb;baseline-shift:baseline;text-anchor:start;white-space:normal;clip-rule:nonzero;display:inline;overflow:visible;visibility:visible;opacity:1;isolation:auto;mix-blend-mode:normal;color-interpolation:sRGB;color-interpolation-filters:linearRGB;solid-color:#000000;solid-opacity:1;fill:#ffffff;fill-opacity:1;fill-rule:evenodd;stroke:none;stroke-width:200.89651489;stroke-linecap:butt;stroke-linejoin:miter;stroke-miterlimit:4;stroke-dasharray:none;stroke-dashoffset:0;stroke-opacity:1;color-rendering:auto;image-rendering:auto;shape-rendering:auto;text-rendering:auto;enable-background:accumulate" d="m -4624.3491,-2021.9039 114.0037,202.3863 278.965,-157.1403 98.5978,175.0369 -278.9649,157.1403 357.417,634.5084 -175.0368,98.59777 -357.417,-634.50837 -284.4348,160.2214 -98.5979,-175.0369 284.4348,-160.2214 -114.0037,-202.3863 175.0368,-98.5978 z" id="path7078" inkscape:connector-curvature="0" />
      <g transform="matrix(-0.99705194,0.07672961,0.07672961,0.99705194,0,0)" style="font-style:normal;font-weight:normal;font-size:5.02241278px;line-height:125%;font-family:sans-serif;letter-spacing:0px;word-spacing:0px;fill:#ffffff;fill-opacity:1;stroke:none;stroke-width:1px;stroke-linecap:butt;stroke-linejoin:miter;stroke-opacity:1" id="text7087">
        <path d="m 1428.3837,1630.6167 -122.6175,-117.7128 q -102.9987,73.5705 -230.5209,73.5705 -78.47525,0 -137.33165,-24.5235 -44.1423,-19.6188 -102.9987,-63.7611 -14.71411,-14.7141 -34.33291,-14.7141 -14.7141,4.9047 -34.3329,24.5235 l -63.7611,83.3799 q -19.6188,29.4282 -49.047,29.4282 -29.42821,4.9047 -49.04701,-19.6188 -24.5235,-24.5235 -19.6188,-58.8564 0,-14.7141 14.7141,-34.3329 l 107.90341,-137.3317 q 44.1423,-58.8564 83.3799,-58.8564 24.5235,0 49.04701,24.5235 107.9034,102.9988 225.61625,102.9988 73.5705,0 132.4269,-29.4283 l -259.94915,-250.1397 -78.4752,83.3799 -161.85511,-166.7598 215.80681,-230.52088 210.90215,112.8081 -93.1893,102.99868 259.9491,255.0444 q 39.2376,-63.7611 39.2376,-142.2363 0,-147.141 -102.9987,-269.75848 -83.3799,-102.99871 -235.42565,-171.66451 245.23505,19.6188 372.75725,166.75981 112.8081,127.52218 112.8081,308.99608 0,117.7128 -73.5705,210.9022 l 117.7128,112.8081 -93.1893,98.094 z" style="font-style:normal;font-variant:normal;font-weight:normal;font-stretch:normal;font-size:1255.60327148px;font-family:'Trebuchet MS';-inkscape-font-specification:'Trebuchet MS';fill:#ffffff" id="path7092" />
      </g>
      <g id="g7105" transform="matrix(-3.3035488,1.0461749,1.0461749,3.3035488,-4039.3765,735.11015)" style="fill:#ffffff;fill-opacity:1">
        <path id="path7095" d="m 196.489,18.773 c 23.334,0 42.252,98.376 42.252,219.73 l 33.81,0 c 0,-130.692 -34.059,-236.635 -76.062,-236.635 -23.9,0 -45.221,31.84 -59.164,81.629 C 123.388,33.708 102.059,1.868 78.162,1.868 36.159,1.868 2.096,107.811 2.096,238.503 l 33.814,0 c 0,-121.354 18.921,-219.73 42.252,-219.73 23.338,0 42.264,90.809 42.264,202.835 l 33.802,0 C 154.229,109.582 173.149,18.773 196.489,18.773" inkscape:connector-curvature="0" style="fill:#ffffff;fill-opacity:1;stroke:none" />
      </g>
    </g>
  </g>
</svg>
