<?xml version="1.0" encoding="UTF-8"?>
<svg width="1422" height="3500" xmlns="http://www.w3.org/2000/svg" xmlns:svg="http://www.w3.org/2000/svg" xmlns:xlink="http://www.w3.org/1999/xlink">
 <!-- Created with SVG-edit - http://svg-edit.googlecode.com/ -->

 <g>
  <title>Layer 1</title>
  <g id="svg_3">
   <image x="3.087249" y="0.88587" width="1417.701374" height="422.584062" id="svg_4" xlink:href="feet.svg"/>
   <rect fill="#ff0000" stroke="#000000" stroke-width="5" x="0.746406" y="-0.00005" width="1420.142528" height="425.622745" id="svg_5" fill-opacity="0"/>
   <image x="2.789277" y="912.512715" width="1414.763804" height="1273.287423" id="svg_6" xlink:href="toothless.svg"/>
   <rect fill="#ff0000" stroke="#000000" stroke-width="5" stroke-dasharray="null" stroke-linejoin="null" stroke-linecap="null" x="0" y="908.942378" width="1420.342292" height="1278.788901" id="svg_7" fill-opacity="0"/>
   <image x="253.028933" y="2809.581541" width="917.208973" height="397.457222" id="svg_11" xlink:href="grin.svg"/>
   <rect fill="#000000" stroke="#000000" stroke-width="5" stroke-dasharray="null" stroke-linejoin="null" stroke-linecap="null" fill-opacity="0" x="255.319814" y="2810.722078" width="912.627268" height="395.175919" id="svg_12"/>
   <path fill="#ffffff" stroke="#000000" stroke-width="5" stroke-dasharray="null" stroke-linejoin="null" stroke-linecap="null" d="m58.265396,1001.561523l1.336269,126.761719l187.851734,0.381836l1.527252,-95.071289l-34.458588,-34.171875l-156.256645,2.099609l-0.000027,0l0.000004,0z" id="svg_15"/>
   <text fill="#000000" stroke="#000000" stroke-width="0" stroke-dasharray="null" stroke-linejoin="null" stroke-linecap="null" x="67.488703" y="-447.287089" id="svg_17" font-size="24" font-family="serif" text-anchor="middle" xml:space="preserve" transform="matrix(2.29088, 0, 0, 2.29088, -3.87486, 2109.67)">...</text>
   <image x="584.975134" y="2203.77333" width="837.092273" height="526.172287" id="svg_8" xlink:href="back.svg"/>
   <rect fill="#000000" stroke="#000000" stroke-width="5" stroke-dasharray="null" stroke-linejoin="null" stroke-linecap="null" fill-opacity="0" x="588.353574" y="2204.432103" width="833.688762" height="522.090061" id="svg_9"/>
   <path fill="#ffffff" stroke="#000000" stroke-width="5" stroke-dasharray="null" stroke-linejoin="null" stroke-linecap="null" d="m5.991782,2243.584961l1.367814,199.821289l792.573815,0.419922l1.563171,-164.978516l-35.271179,-37.572266l-760.233542,2.30957l-0.000046,0l-0.000032,0z" id="svg_18"/>
   <text fill="#000000" stroke="#000000" stroke-width="0" stroke-dasharray="null" stroke-linejoin="null" stroke-linecap="null" x="172.766463" y="94.657294" id="svg_19" font-size="24" font-family="serif" text-anchor="middle" xml:space="preserve" transform="matrix(2.29088, 0, 0, 2.29088, -3.87486, 2109.67)">Hey guys! He's not ready yet.</text>
   <text fill="#000000" stroke="#000000" stroke-width="0" stroke-dasharray="null" stroke-linejoin="null" stroke-linecap="null" x="179.766487" y="125.657292" id="svg_20" font-size="24" font-family="serif" text-anchor="middle" xml:space="preserve" transform="matrix(2.29088, 0, 0, 2.29088, -3.87486, 2109.67)">Don't worry, I'll take care of this...</text>
   <path fill="#ffffff" stroke="#000000" stroke-width="5" stroke-dasharray="null" stroke-linejoin="null" stroke-linecap="null" d="m1000.125977,3145.724609l1.336304,126.762695l316.141357,0.380859l1.5271,-95.070313l-34.458374,-34.172852l-284.546387,2.099609z" id="svg_21"/>
   <text fill="#000000" stroke="#000000" stroke-width="0" stroke-dasharray="null" stroke-linejoin="null" stroke-linecap="null" x="505.811219" y="488.435616" id="svg_22" font-size="24" font-family="serif" text-anchor="middle" xml:space="preserve" transform="matrix(2.29088, 0, 0, 2.29088, -3.87486, 2109.67)">... myself</text>
   <path fill="#ffffff" stroke="#000000" stroke-width="5" stroke-dasharray="null" stroke-linejoin="null" stroke-linecap="null" d="m13.216857,444.226074l-0.399208,229.850586l512.436196,-1.335938l3.392334,-198.160645l-36.018219,-34.172363l-479.411143,3.818359l0.00004,0z" id="svg_26"/>
   <text fill="#000000" stroke="#000000" stroke-width="0" stroke-dasharray="null" stroke-linejoin="null" stroke-linecap="null" x="119.608261" y="-696.696931" id="svg_28" font-size="24" font-family="serif" text-anchor="middle" xml:space="preserve" transform="matrix(2.29088, 0, 0, 2.29088, -3.87486, 2109.67)">you'd better be ready,</text>
   <text fill="#000000" stroke="#000000" stroke-width="0" stroke-dasharray="null" stroke-linejoin="null" stroke-linecap="null" x="119.527012" y="-669.696931" id="svg_30" font-size="24" font-family="serif" text-anchor="middle" xml:space="preserve" transform="matrix(2.29088, 0, 0, 2.29088, -3.87486, 2109.67)">they want to redo the</text>
   <text fill="#000000" stroke="#000000" stroke-width="0" stroke-dasharray="null" stroke-linejoin="null" stroke-linecap="null" x="119.32076" y="-643.446931" id="svg_31" font-size="24" font-family="serif" text-anchor="middle" xml:space="preserve" transform="matrix(2.29088, 0, 0, 2.29088, -3.87486, 2109.67)">last sequence.</text>
   <path fill="#ffffff" stroke="#000000" stroke-width="5" stroke-dasharray="null" stroke-linejoin="null" stroke-linecap="null" d="m55.514717,691.828125l-0.409878,94.117188l211.668446,0.381348l3.482697,-62.42627l-36.977966,-34.171875l-177.763329,2.099609l0.000027,0l0.000004,0z" id="svg_35"/>
   <text fill="#000000" stroke="#000000" stroke-width="0" stroke-dasharray="null" stroke-linejoin="null" stroke-linecap="null" x="72.984044" y="-593.57193" id="svg_36" font-size="24" font-family="serif" text-anchor="middle" xml:space="preserve" transform="matrix(2.29088, 0, 0, 2.29088, -3.87486, 2109.67)">Again.</text>
   <path fill="#ffffff" stroke="#000000" stroke-width="5" stroke-dasharray="null" stroke-linejoin="null" stroke-linecap="null" d="m930.045532,34.204102l-2.117371,88.962402l414.501282,0.381836l5.110596,-57.271973l-36.018311,-34.172363l-381.476196,2.100098z" id="svg_38"/>
   <text fill="#000000" stroke="#000000" stroke-width="0" stroke-dasharray="null" stroke-linejoin="null" stroke-linecap="null" x="496.829744" y="-879.13443" id="svg_27" font-size="24" font-family="serif" text-anchor="middle" xml:space="preserve" transform="matrix(2.29088, 0, 0, 2.29088, -3.87486, 2109.67)">Okay Toothless,</text>
   <image x="545.399596" y="405.824678" width="849.866859" height="528.998759" id="svg_24" xlink:href="front.svg"/>
   <rect fill="#000000" stroke="#000000" stroke-width="5" stroke-dasharray="null" stroke-linejoin="null" stroke-linecap="null" x="547.549325" y="406.379579" width="844.473742" height="524.89666" id="svg_25" fill-opacity="0"/>
   <path fill="#ffffff" stroke="#000000" stroke-width="5" stroke-dasharray="null" stroke-linejoin="null" stroke-linecap="null" d="m446.943359,3372.902344l1.336456,126.761719l666.390472,-3.691406l1.526978,-95.070313l-34.458252,-34.172852l-634.795654,6.172852z" id="svg_39"/>
   <text fill="#000000" stroke="#000000" stroke-width="0" stroke-dasharray="null" stroke-linejoin="null" stroke-linecap="null" x="339.358058" y="586.712845" id="svg_40" font-size="24" font-family="serif" text-anchor="middle" xml:space="preserve" transform="matrix(2.29088, 0, 0, 2.29088, -3.87486, 2109.67)">And that's how I got fired.</text>
   <path id="svg_1" fill="#ffffff" stroke="#000000" stroke-width="5" stroke-dasharray="null" stroke-linejoin="null" stroke-linecap="null" d="m1131.406006,1977.500977l1.336182,126.762695l187.851807,0.380859l1.527954,-95.071289l-34.459473,-34.170898l-156.25647,2.098633l0,0z"/>
   <text id="svg_2" fill="#000000" stroke="#000000" stroke-width="0" stroke-dasharray="null" stroke-linejoin="null" stroke-linecap="null" x="535.930109" y="-21.27537" font-size="24" font-family="serif" text-anchor="middle" xml:space="preserve" transform="matrix(2.29088, 0, 0, 2.29088, -3.87486, 2109.67)">oh.</text>
   <path fill="#ffffff" stroke="#000000" stroke-width="5" stroke-dasharray="null" stroke-linejoin="null" stroke-linecap="null" d="m127.104561,805.083496l-0.409889,94.116699l428.156158,-1.336426l3.482605,-62.42627l-36.977966,-34.172363l-394.250938,3.818359l0.000031,0z" id="svg_32"/>
   <text fill="#000000" stroke="#000000" stroke-width="0" stroke-dasharray="null" stroke-linejoin="null" stroke-linecap="null" x="149.202782" y="-542.384431" id="svg_33" font-size="24" font-family="serif" text-anchor="middle" xml:space="preserve" transform="matrix(2.29088, 0, 0, 2.29088, -3.87486, 2109.67)">Can you please ...</text>
  </g>
 </g>
</svg>